<svg xmlns="http://www.w3.org/2000/svg" xmlns:xlink="http://www.w3.org/1999/xlink" id="Capa_1" x="0px" y="0px" viewBox="0 0 305.2 91.7" style="enable-background:new 0 0 305.2 91.7;" xml:space="preserve"><style type="text/css">	.st0{fill:url(#SVGID_1_);}	.st1{fill:url(#SVGID_00000098196299763620895920000007134258467648405123_);}	.st2{fill:url(#SVGID_00000049214310116663169310000016602760861975886012_);}	.st3{fill:url(#SVGID_00000116943551327940329430000009759442038227579068_);}	.st4{fill:url(#SVGID_00000178913279613648059400000010327694542933401495_);}	.st5{fill:url(#SVGID_00000100363754596098834840000016325896212792686261_);}	.st6{fill:url(#SVGID_00000013173554601080020440000001029054100611687356_);}	.st7{fill:url(#SVGID_00000096026889142340279080000007460054979150109343_);}	.st8{fill:url(#SVGID_00000031174579829305003090000008395801828592467899_);}	.st9{fill:url(#SVGID_00000043455926162142544370000011355347645092764841_);}	.st10{fill:url(#SVGID_00000053543508728595094230000006055830745621571737_);}	.st11{fill:url(#SVGID_00000052784259272110684680000004885407460554612648_);}	.st12{fill:url(#SVGID_00000041286066334699086660000003506692036276275105_);}	.st13{fill:url(#SVGID_00000095301560768543306140000008847414864817769103_);}	.st14{fill:url(#SVGID_00000064333141274103822700000014974758509048804508_);}	.st15{fill:url(#SVGID_00000075875051723820215920000000938235535353475498_);}	.st16{fill:url(#SVGID_00000159455144435777541990000008873151344554065555_);}</style><g>	<g>					<linearGradient id="SVGID_1_" gradientUnits="userSpaceOnUse" x1="0" y1="513.69" x2="305.168" y2="513.69" gradientTransform="matrix(1 0 0 -1 0 532.09)">			<stop offset="0" style="stop-color:#0087B1"></stop>			<stop offset="8.675033e-02" style="stop-color:#1F76A7"></stop>			<stop offset="0.271" style="stop-color:#5B5594"></stop>			<stop offset="0.4486" style="stop-color:#8C3984"></stop>			<stop offset="0.6147" style="stop-color:#B32378"></stop>			<stop offset="0.7668" style="stop-color:#CF146F"></stop>			<stop offset="0.9001" style="stop-color:#E00A6A"></stop>			<stop offset="1" style="stop-color:#E60768"></stop>		</linearGradient>		<path class="st0" d="M9.1,27.6h17.2v7.2H0v-7.2 M0,9.2V2h25.8v7.2H9.2 M3.6,14.7h11.6l-4,6.9H0v-6.9h9.2"></path>					<linearGradient id="SVGID_00000013174022960042628620000014726880504416074882_" gradientUnits="userSpaceOnUse" x1="-2.539825e-02" y1="509.94" x2="305.1426" y2="509.94" gradientTransform="matrix(1 0 0 -1 0 532.09)">			<stop offset="0" style="stop-color:#0087B1"></stop>			<stop offset="8.675033e-02" style="stop-color:#1F76A7"></stop>			<stop offset="0.271" style="stop-color:#5B5594"></stop>			<stop offset="0.4486" style="stop-color:#8C3984"></stop>			<stop offset="0.6147" style="stop-color:#B32378"></stop>			<stop offset="0.7668" style="stop-color:#CF146F"></stop>			<stop offset="0.9001" style="stop-color:#E00A6A"></stop>			<stop offset="1" style="stop-color:#E60768"></stop>		</linearGradient>		<path style="fill:url(#SVGID_00000013174022960042628620000014726880504416074882_);" d="M38.1,34.9L27.6,9.4h9.2l8.4,21.4h-4.6   l8.8-21.4h8.5L47.5,34.9H38.1z"></path>					<linearGradient id="SVGID_00000090272357724138479890000017390527091009251246_" gradientUnits="userSpaceOnUse" x1="-2.539825e-02" y1="509.94" x2="305.1426" y2="509.94" gradientTransform="matrix(1 0 0 -1 0 532.09)">			<stop offset="0" style="stop-color:#0087B1"></stop>			<stop offset="8.675033e-02" style="stop-color:#1F76A7"></stop>			<stop offset="0.271" style="stop-color:#5B5594"></stop>			<stop offset="0.4486" style="stop-color:#8C3984"></stop>			<stop offset="0.6147" style="stop-color:#B32378"></stop>			<stop offset="0.7668" style="stop-color:#CF146F"></stop>			<stop offset="0.9001" style="stop-color:#E00A6A"></stop>			<stop offset="1" style="stop-color:#E60768"></stop>		</linearGradient>		<path style="fill:url(#SVGID_00000090272357724138479890000017390527091009251246_);" d="M72.8,35.3c-3,0-5.7-0.6-7.9-1.7   c-2.2-1.1-4-2.7-5.2-4.7s-1.9-4.2-1.9-6.7c0-2.6,0.6-4.8,1.8-6.8s2.9-3.5,5-4.7C66.7,9.6,69.1,9,71.8,9c2.5,0,4.8,0.5,6.8,1.6   c2.1,1.1,3.7,2.6,4.9,4.5c1.2,2,1.9,4.3,1.9,7.2c0,0.3,0,0.7,0,1.1c0,0.4-0.1,0.8-0.1,1.1H65.1v-4.7h15.4l-3.4,1.3   c0-1.1-0.2-2.1-0.6-3c-0.5-0.9-1.1-1.5-1.9-2c-0.8-0.5-1.7-0.7-2.8-0.7s-2.1,0.2-2.9,0.7c-0.8,0.5-1.4,1.1-1.9,2   c-0.4,0.9-0.6,1.9-0.6,3v1.4c0,1.3,0.3,2.3,0.8,3.2s1.3,1.6,2.2,2.1c1,0.5,2.1,0.7,3.5,0.7c1.3,0,2.4-0.2,3.2-0.5   c0.9-0.4,1.8-0.9,2.6-1.7l4.7,4.9c-1.2,1.3-2.7,2.3-4.5,3C77.3,34.9,75.2,35.3,72.8,35.3z"></path>					<linearGradient id="SVGID_00000095322927488487978620000011544500420012517555_" gradientUnits="userSpaceOnUse" x1="-2.539825e-02" y1="510.09" x2="305.1426" y2="510.09" gradientTransform="matrix(1 0 0 -1 0 532.09)">			<stop offset="0" style="stop-color:#0087B1"></stop>			<stop offset="8.675033e-02" style="stop-color:#1F76A7"></stop>			<stop offset="0.271" style="stop-color:#5B5594"></stop>			<stop offset="0.4486" style="stop-color:#8C3984"></stop>			<stop offset="0.6147" style="stop-color:#B32378"></stop>			<stop offset="0.7668" style="stop-color:#CF146F"></stop>			<stop offset="0.9001" style="stop-color:#E00A6A"></stop>			<stop offset="1" style="stop-color:#E60768"></stop>		</linearGradient>		<path style="fill:url(#SVGID_00000095322927488487978620000011544500420012517555_);" d="M89.6,34.9V9.4h8.6v7.5l-1.3-2.1   c0.8-1.9,2-3.4,3.7-4.3c1.7-1,3.7-1.5,6.1-1.5v8.1c-0.4-0.1-0.8-0.1-1.1-0.1s-0.6,0-0.9,0c-1.8,0-3.3,0.5-4.4,1.5   c-1.1,1-1.7,2.6-1.7,4.8V35L89.6,34.9L89.6,34.9z"></path>					<linearGradient id="SVGID_00000021088628961561657030000015017556279594549893_" gradientUnits="userSpaceOnUse" x1="-2.539825e-02" y1="513.59" x2="305.1426" y2="513.59" gradientTransform="matrix(1 0 0 -1 0 532.09)">			<stop offset="0" style="stop-color:#0087B1"></stop>			<stop offset="8.675033e-02" style="stop-color:#1F76A7"></stop>			<stop offset="0.271" style="stop-color:#5B5594"></stop>			<stop offset="0.4486" style="stop-color:#8C3984"></stop>			<stop offset="0.6147" style="stop-color:#B32378"></stop>			<stop offset="0.7668" style="stop-color:#CF146F"></stop>			<stop offset="0.9001" style="stop-color:#E00A6A"></stop>			<stop offset="1" style="stop-color:#E60768"></stop>		</linearGradient>		<path style="fill:url(#SVGID_00000021088628961561657030000015017556279594549893_);" d="M141,35.5c-2.6,0-5-0.4-7.2-1.2   s-4.1-2-5.7-3.5c-1.6-1.5-2.9-3.3-3.8-5.4c-0.9-2.1-1.4-4.4-1.4-6.9s0.5-4.8,1.4-6.9c0.9-2.1,2.2-3.9,3.8-5.4s3.6-2.7,5.8-3.5   s4.7-1.2,7.4-1.2c3.1,0,5.8,0.5,8.3,1.6c2.4,1,4.5,2.5,6.1,4.5l-5.9,5.4c-1.1-1.3-2.3-2.2-3.6-2.8s-2.7-0.9-4.3-0.9   c-1.4,0-2.7,0.2-3.9,0.7c-1.2,0.4-2.1,1.1-3,1.9c-0.8,0.8-1.4,1.8-1.9,3s-0.7,2.4-0.7,3.9c0,1.4,0.2,2.6,0.7,3.8s1.1,2.2,1.9,3   c0.8,0.8,1.8,1.5,2.9,1.9c1.1,0.5,2.4,0.7,3.8,0.7c1.4,0,2.7-0.2,4-0.7s2.6-1.2,4-2.3l5.2,6.5c-1.9,1.3-4.1,2.4-6.6,3.1   C145.8,35.1,143.4,35.5,141,35.5z M146.5,30.2V17.7h8.3v13.6L146.5,30.2z"></path>					<linearGradient id="SVGID_00000074438509879453636610000011306926559918609844_" gradientUnits="userSpaceOnUse" x1="-2.539825e-02" y1="510.09" x2="305.1426" y2="510.09" gradientTransform="matrix(1 0 0 -1 0 532.09)">			<stop offset="0" style="stop-color:#0087B1"></stop>			<stop offset="8.675033e-02" style="stop-color:#1F76A7"></stop>			<stop offset="0.271" style="stop-color:#5B5594"></stop>			<stop offset="0.4486" style="stop-color:#8C3984"></stop>			<stop offset="0.6147" style="stop-color:#B32378"></stop>			<stop offset="0.7668" style="stop-color:#CF146F"></stop>			<stop offset="0.9001" style="stop-color:#E00A6A"></stop>			<stop offset="1" style="stop-color:#E60768"></stop>		</linearGradient>		<path style="fill:url(#SVGID_00000074438509879453636610000011306926559918609844_);" d="M160.3,34.9V9.4h8.6v7.5l-1.3-2.1   c0.8-1.9,2-3.4,3.7-4.3c1.7-1,3.7-1.5,6.1-1.5v8.1c-0.4-0.1-0.8-0.1-1.1-0.1c-0.3,0-0.6,0-0.9,0c-1.8,0-3.3,0.5-4.4,1.5   s-1.7,2.6-1.7,4.8V35L160.3,34.9L160.3,34.9z"></path>					<linearGradient id="SVGID_00000029038375825014015820000011567413652301387392_" gradientUnits="userSpaceOnUse" x1="-2.539825e-02" y1="509.99" x2="305.1426" y2="509.99" gradientTransform="matrix(1 0 0 -1 0 532.09)">			<stop offset="0" style="stop-color:#0087B1"></stop>			<stop offset="8.675033e-02" style="stop-color:#1F76A7"></stop>			<stop offset="0.271" style="stop-color:#5B5594"></stop>			<stop offset="0.4486" style="stop-color:#8C3984"></stop>			<stop offset="0.6147" style="stop-color:#B32378"></stop>			<stop offset="0.7668" style="stop-color:#CF146F"></stop>			<stop offset="0.9001" style="stop-color:#E00A6A"></stop>			<stop offset="1" style="stop-color:#E60768"></stop>		</linearGradient>		<path style="fill:url(#SVGID_00000029038375825014015820000011567413652301387392_);" d="M193.6,35.3c-2.8,0-5.3-0.6-7.4-1.7   s-3.9-2.7-5.1-4.7s-1.9-4.3-1.9-6.8c0-2.6,0.6-4.8,1.9-6.8c1.2-2,2.9-3.5,5.1-4.7s4.6-1.7,7.4-1.7s5.3,0.6,7.4,1.7   c2.2,1.1,3.9,2.7,5.1,4.7s1.9,4.3,1.9,6.8s-0.6,4.8-1.9,6.8c-1.2,2-2.9,3.5-5.1,4.7C198.8,34.7,196.4,35.3,193.6,35.3z    M193.6,28.2c1,0,1.9-0.2,2.7-0.7c0.8-0.5,1.4-1.2,1.9-2.1c0.5-0.9,0.7-2,0.7-3.3s-0.2-2.4-0.7-3.3c-0.5-0.9-1.1-1.6-1.9-2   c-0.8-0.5-1.7-0.7-2.7-0.7s-1.9,0.2-2.7,0.7c-0.8,0.5-1.4,1.1-1.9,2s-0.7,2-0.7,3.3s0.2,2.4,0.7,3.3c0.5,0.9,1.1,1.6,1.9,2.1   C191.7,27.9,192.6,28.2,193.6,28.2z"></path>					<linearGradient id="SVGID_00000059989760468345664470000000295795720879254169_" gradientUnits="userSpaceOnUse" x1="-2.539825e-02" y1="509.94" x2="305.1426" y2="509.94" gradientTransform="matrix(1 0 0 -1 0 532.09)">			<stop offset="0" style="stop-color:#0087B1"></stop>			<stop offset="8.675033e-02" style="stop-color:#1F76A7"></stop>			<stop offset="0.271" style="stop-color:#5B5594"></stop>			<stop offset="0.4486" style="stop-color:#8C3984"></stop>			<stop offset="0.6147" style="stop-color:#B32378"></stop>			<stop offset="0.7668" style="stop-color:#CF146F"></stop>			<stop offset="0.9001" style="stop-color:#E00A6A"></stop>			<stop offset="1" style="stop-color:#E60768"></stop>		</linearGradient>		<path style="fill:url(#SVGID_00000059989760468345664470000000295795720879254169_);" d="M217.4,34.9l-9-25.5h8.4l7.2,21.4h-4.1   l7.6-21.4h7.6l7.2,21.4h-4l7.4-21.4h7.8l-9.1,25.5h-8.6l-6.1-17.6h2.6L226,34.9H217.4z"></path>					<linearGradient id="SVGID_00000053511822178430373680000005227732862190086280_" gradientUnits="userSpaceOnUse" x1="-2.539825e-02" y1="512.59" x2="305.1426" y2="512.59" gradientTransform="matrix(1 0 0 -1 0 532.09)">			<stop offset="0" style="stop-color:#0087B1"></stop>			<stop offset="8.675033e-02" style="stop-color:#1F76A7"></stop>			<stop offset="0.271" style="stop-color:#5B5594"></stop>			<stop offset="0.4486" style="stop-color:#8C3984"></stop>			<stop offset="0.6147" style="stop-color:#B32378"></stop>			<stop offset="0.7668" style="stop-color:#CF146F"></stop>			<stop offset="0.9001" style="stop-color:#E00A6A"></stop>			<stop offset="1" style="stop-color:#E60768"></stop>		</linearGradient>		<path style="fill:url(#SVGID_00000053511822178430373680000005227732862190086280_);" d="M254.3,17v-6.7h18.5V17H254.3z    M268.4,35.3c-3.3,0-5.8-0.8-7.6-2.4c-1.8-1.6-2.7-4-2.7-7.3V3.7h8.9v21.8c0,1,0.2,1.7,0.7,2.2s1.1,0.8,2,0.8c1,0,1.9-0.3,2.7-0.8   l2.3,6.2c-0.8,0.5-1.8,0.9-2.8,1.2C270.7,35.2,269.6,35.3,268.4,35.3z"></path>					<linearGradient id="SVGID_00000005229440931470067120000014076971521821116588_" gradientUnits="userSpaceOnUse" x1="-2.539825e-02" y1="514.64" x2="305.1426" y2="514.64" gradientTransform="matrix(1 0 0 -1 0 532.09)">			<stop offset="0" style="stop-color:#0087B1"></stop>			<stop offset="8.675033e-02" style="stop-color:#1F76A7"></stop>			<stop offset="0.271" style="stop-color:#5B5594"></stop>			<stop offset="0.4486" style="stop-color:#8C3984"></stop>			<stop offset="0.6147" style="stop-color:#B32378"></stop>			<stop offset="0.7668" style="stop-color:#CF146F"></stop>			<stop offset="0.9001" style="stop-color:#E00A6A"></stop>			<stop offset="1" style="stop-color:#E60768"></stop>		</linearGradient>		<path style="fill:url(#SVGID_00000005229440931470067120000014076971521821116588_);" d="M294.6,8.9c2,0,3.8,0.4,5.4,1.2   s2.9,2.1,3.8,3.7c0.9,1.7,1.4,3.8,1.4,6.4v14.6h-9V21.7c0-1.8-0.4-3.1-1.1-4c-0.7-0.8-1.7-1.2-3-1.2c-1,0-1.8,0.2-2.6,0.6   c-0.8,0.4-1.4,1.1-1.8,2s-0.7,2-0.7,3.5v12.3h-9V0h8.9v16.6l-2.1-2.1c1-1.8,2.3-3.2,4-4.2C290.6,9.4,292.5,8.9,294.6,8.9z"></path>
		<!-- LEADERS — centrado bajo EVERGROWTH con translate(55,0) -->
		<g transform="translate(55 0)">
				<linearGradient id="SVGID_00000096746712629716976520000009043682804856611969_" gradientUnits="userSpaceOnUse" x1="-2.539825e-02" y1="457.24" x2="305.1426" y2="457.24" gradientTransform="matrix(1 0 0 -1 0 532.09)">			<stop offset="0" style="stop-color:#0087B1"></stop>			<stop offset="8.675033e-02" style="stop-color:#1F76A7"></stop>			<stop offset="0.271" style="stop-color:#5B5594"></stop>			<stop offset="0.4486" style="stop-color:#8C3984"></stop>			<stop offset="0.6147" style="stop-color:#B32378"></stop>			<stop offset="0.7668" style="stop-color:#CF146F"></stop>			<stop offset="0.9001" style="stop-color:#E00A6A"></stop>			<stop offset="1" style="stop-color:#E60768"></stop>		</linearGradient>		<path style="fill:url(#SVGID_00000096746712629716976520000009043682804856611969_);" d="M0,91.3V58.4h9.3v25.5H25v7.4L0,91.3   L0,91.3z"></path>					<linearGradient id="SVGID_00000065776952493978047420000013296675461029969588_" gradientUnits="userSpaceOnUse" x1="-2.539825e-02" y1="453.54" x2="305.1426" y2="453.54" gradientTransform="matrix(1 0 0 -1 0 532.09)">			<stop offset="0" style="stop-color:#0087B1"></stop>			<stop offset="8.675033e-02" style="stop-color:#1F76A7"></stop>			<stop offset="0.271" style="stop-color:#5B5594"></stop>			<stop offset="0.4486" style="stop-color:#8C3984"></stop>			<stop offset="0.6147" style="stop-color:#B32378"></stop>			<stop offset="0.7668" style="stop-color:#CF146F"></stop>			<stop offset="0.9001" style="stop-color:#E00A6A"></stop>			<stop offset="1" style="stop-color:#E60768"></stop>		</linearGradient>		<path style="fill:url(#SVGID_00000065776952493978047420000013296675461029969588_);" d="M41.5,91.7c-3,0-5.7-0.6-7.9-1.7   c-2.2-1.1-4-2.7-5.2-4.7s-1.9-4.2-1.9-6.7c0-2.6,0.6-4.8,1.8-6.8c1.2-2,2.9-3.5,5-4.7c2.1-1.1,4.5-1.7,7.2-1.7   c2.5,0,4.8,0.5,6.8,1.6c2.1,1.1,3.7,2.6,4.9,4.5c1.2,2,1.9,4.3,1.9,7.2c0,0.3,0,0.7,0,1.1c0,0.4-0.1,0.8-0.1,1.1H33.8v-4.8h15.4   l-3.4,1.3c0-1.1-0.2-2.1-0.6-3c-0.5-0.9-1.1-1.5-1.9-2c-0.8-0.5-1.7-0.7-2.8-0.7s-2.1,0.2-2.9,0.7c-0.8,0.5-1.4,1.1-1.9,2   c-0.4,0.9-0.6,1.9-0.6,3v1.4c0,1.3,0.3,2.3,0.8,3.2s1.3,1.6,2.2,2.1c1,0.5,2.1,0.7,3.5,0.7c1.3,0,2.4-0.2,3.2-0.5   c0.9-0.4,1.8-0.9,2.6-1.7l4.7,4.9c-1.2,1.3-2.7,2.3-4.5,3C46,91.3,43.9,91.7,41.5,91.7z"></path>					<linearGradient id="SVGID_00000107552966766521262420000006221665652415846833_" gradientUnits="userSpaceOnUse" x1="-2.539825e-02" y1="453.54" x2="305.1426" y2="453.54" gradientTransform="matrix(1 0 0 -1 0 532.09)">			<stop offset="0" style="stop-color:#0087B1"></stop>			<stop offset="8.675033e-02" style="stop-color:#1F76A7"></stop>			<stop offset="0.271" style="stop-color:#5B5594"></stop>			<stop offset="0.4486" style="stop-color:#8C3984"></stop>			<stop offset="0.6147" style="stop-color:#B32378"></stop>			<stop offset="0.7668" style="stop-color:#CF146F"></stop>			<stop offset="0.9001" style="stop-color:#E00A6A"></stop>			<stop offset="1" style="stop-color:#E60768"></stop>		</linearGradient>		<path style="fill:url(#SVGID_00000107552966766521262420000006221665652415846833_);" d="M65.6,91.7c-2,0-3.7-0.3-5.1-1   c-1.4-0.7-2.5-1.6-3.2-2.8s-1.1-2.5-1.1-3.9c0-1.6,0.4-2.9,1.2-4.1c0.8-1.2,2-2,3.7-2.7s3.8-0.9,6.4-0.9h6V81h-4.8   c-1.4,0-2.5,0.2-3,0.7c-0.6,0.4-0.9,1.1-0.9,1.9c0,0.8,0.3,1.4,0.9,1.9c0.6,0.5,1.4,0.7,2.4,0.7s1.9-0.2,2.7-0.7s1.4-1.2,1.7-2.2   l1.2,3.3c-0.5,1.8-1.4,3.1-2.7,4C69.6,91.2,67.8,91.7,65.6,91.7z M73.1,91.3v-4.7l-0.6-1.2v-8.7c0-1.4-0.4-2.5-1.3-3.3   c-0.9-0.8-2.2-1.2-4.1-1.2c-1.2,0-2.5,0.2-3.7,0.6c-1.3,0.4-2.3,0.9-3.2,1.6l-3-6c1.4-0.9,3.2-1.7,5.2-2.2s4-0.8,6-0.8   c4.1,0,7.3,1,9.6,2.9s3.4,4.9,3.4,8.9v14.1L73.1,91.3L73.1,91.3z"></path>					<linearGradient id="SVGID_00000146482673504337438010000011735315892952561542_" gradientUnits="userSpaceOnUse" x1="-2.539825e-02" y1="458.04" x2="305.1426" y2="458.04" gradientTransform="matrix(1 0 0 -1 0 532.09)">			<stop offset="0" style="stop-color:#0087B1"></stop>			<stop offset="8.675033e-02" style="stop-color:#1F76A7"></stop>			<stop offset="0.271" style="stop-color:#5B5594"></stop>			<stop offset="0.4486" style="stop-color:#8C3984"></stop>			<stop offset="0.6147" style="stop-color:#B32378"></stop>			<stop offset="0.7668" style="stop-color:#CF146F"></stop>			<stop offset="0.9001" style="stop-color:#E00A6A"></stop>			<stop offset="1" style="stop-color:#E60768"></stop>		</linearGradient>		<path style="fill:url(#SVGID_00000146482673504337438010000011735315892952561542_);" d="M98.5,91.7c-2.3,0-4.4-0.5-6.3-1.6   c-1.9-1.1-3.4-2.6-4.5-4.6s-1.7-4.3-1.7-7s0.6-5.1,1.7-7c1.1-2,2.6-3.5,4.5-4.6s4-1.6,6.3-1.6c2.2,0,4,0.5,5.5,1.4   c1.5,1,2.7,2.4,3.5,4.3c0.8,1.9,1.2,4.4,1.2,7.4s-0.4,5.5-1.1,7.4c-0.7,1.9-1.9,3.4-3.4,4.3C102.7,91.2,100.8,91.7,98.5,91.7z    M100.4,84.6c1,0,1.9-0.2,2.7-0.7s1.4-1.2,1.9-2.1c0.5-0.9,0.7-2,0.7-3.3s-0.2-2.5-0.7-3.3c-0.5-0.9-1.1-1.6-1.9-2   c-0.8-0.5-1.7-0.7-2.7-0.7s-2,0.2-2.7,0.7c-0.8,0.5-1.4,1.1-1.9,2s-0.7,2-0.7,3.3s0.2,2.3,0.7,3.3c0.5,0.9,1.1,1.6,1.9,2.1   C98.4,84.3,99.3,84.6,100.4,84.6z M106,91.3v-4.4v-8.4l-0.5-8.4V56.4h8.9v34.9L106,91.3L106,91.3z"></path>					<linearGradient id="SVGID_00000030482722453531590440000007783435225294493575_" gradientUnits="userSpaceOnUse" x1="-2.539825e-02" y1="453.54" x2="305.1426" y2="453.54" gradientTransform="matrix(1 0 0 -1 0 532.09)">			<stop offset="0" style="stop-color:#0087B1"></stop>			<stop offset="8.675033e-02" style="stop-color:#1F76A7"></stop>			<stop offset="0.271" style="stop-color:#5B5594"></stop>			<stop offset="0.4486" style="stop-color:#8C3984"></stop>			<stop offset="0.6147" style="stop-color:#B32378"></stop>			<stop offset="0.7668" style="stop-color:#CF146F"></stop>			<stop offset="0.9001" style="stop-color:#E00A6A"></stop>			<stop offset="1" style="stop-color:#E60768"></stop>		</linearGradient>		<path style="fill:url(#SVGID_00000030482722453531590440000007783435225294493575_);" d="M133.6,91.7c-3,0-5.7-0.6-7.9-1.7   c-2.2-1.1-4-2.7-5.2-4.7s-1.9-4.2-1.9-6.7c0-2.6,0.6-4.8,1.8-6.8s2.9-3.5,5-4.7c2.1-1.1,4.5-1.7,7.2-1.7c2.5,0,4.8,0.5,6.8,1.6   c2.1,1.1,3.7,2.6,4.9,4.5c1.2,2,1.9,4.3,1.9,7.2c0,0.3,0,0.7,0,1.1c0,0.4-0.1,0.8-0.1,1.1h-20.2v-4.8h15.4l-3.4,1.3   c0-1.1-0.2-2.1-0.6-3c-0.5-0.9-1.1-1.5-1.9-2c-0.8-0.5-1.7-0.7-2.8-0.7s-2.1,0.2-2.9,0.7c-0.8,0.5-1.4,1.1-1.9,2   c-0.4,0.9-0.6,1.9-0.6,3v1.4c0,1.3,0.3,2.3,0.8,3.2s1.3,1.6,2.2,2.1c1,0.5,2.1,0.7,3.5,0.7c1.3,0,2.4-0.2,3.2-0.5   c0.9-0.4,1.8-0.9,2.6-1.7l4.7,4.9c-1.2,1.3-2.7,2.3-4.5,3C138.1,91.3,136,91.7,133.6,91.7z"></path>					<linearGradient id="SVGID_00000053519772474162988480000009149127365295282362_" gradientUnits="userSpaceOnUse" x1="-2.539825e-02" y1="453.69" x2="305.1426" y2="453.69" gradientTransform="matrix(1 0 0 -1 0 532.09)">			<stop offset="0" style="stop-color:#0087B1"></stop>			<stop offset="8.675033e-02" style="stop-color:#1F76A7"></stop>			<stop offset="0.271" style="stop-color:#5B5594"></stop>			<stop offset="0.4486" style="stop-color:#8C3984"></stop>			<stop offset="0.6147" style="stop-color:#B32378"></stop>			<stop offset="0.7668" style="stop-color:#CF146F"></stop>			<stop offset="0.9001" style="stop-color:#E00A6A"></stop>			<stop offset="1" style="stop-color:#E60768"></stop>		</linearGradient>		<path style="fill:url(#SVGID_00000053519772474162988480000009149127365295282362_);" d="M150.4,91.3V65.8h8.6v7.5l-1.3-2.1   c0.8-1.9,2-3.4,3.7-4.3c1.7-1,3.7-1.5,6.1-1.5v8.1c-0.4-0.1-0.8-0.1-1.1-0.1c-0.3,0-0.6,0-0.9,0c-1.8,0-3.3,0.5-4.4,1.5   c-1.1,1-1.7,2.6-1.7,4.8v11.7L150.4,91.3L150.4,91.3z"></path>					<linearGradient id="SVGID_00000162348505512628008710000007363380337533822655_" gradientUnits="userSpaceOnUse" x1="-2.539825e-02" y1="453.54" x2="305.1426" y2="453.54" gradientTransform="matrix(1 0 0 -1 0 532.09)">			<stop offset="0" style="stop-color:#0087B1"></stop>			<stop offset="8.675033e-02" style="stop-color:#1F76A7"></stop>			<stop offset="0.271" style="stop-color:#5B5594"></stop>			<stop offset="0.4486" style="stop-color:#8C3984"></stop>			<stop offset="0.6147" style="stop-color:#B32378"></stop>			<stop offset="0.7668" style="stop-color:#CF146F"></stop>			<stop offset="0.9001" style="stop-color:#E00A6A"></stop>			<stop offset="1" style="stop-color:#E60768"></stop>		</linearGradient>		<path style="fill:url(#SVGID_00000162348505512628008710000007363380337533822655_);" d="M180.5,91.7c-2.2,0-4.3-0.3-6.3-0.8   c-2.1-0.5-3.7-1.1-5-1.9l2.6-6.1c1.2,0.7,2.6,1.3,4.2,1.7s3.2,0.7,4.7,0.7s2.5-0.2,3.1-0.5s0.9-0.8,0.9-1.3s-0.3-0.8-0.8-1.1   s-1.3-0.4-2.2-0.5c-0.9-0.1-1.9-0.2-2.9-0.4c-1.1-0.1-2.1-0.4-3.2-0.7s-2.1-0.7-3-1.2s-1.6-1.3-2.1-2.2s-0.8-2.1-0.8-3.6   c0-1.6,0.5-3.1,1.4-4.3c1-1.3,2.4-2.3,4.2-3s4.1-1.1,6.8-1.1c1.8,0,3.6,0.2,5.4,0.6s3.4,0.9,4.6,1.6l-2.7,6.1   c-1.3-0.8-2.5-1.3-3.8-1.5c-1.3-0.3-2.4-0.4-3.5-0.4c-1.5,0-2.6,0.2-3.2,0.5s-1,0.7-1,1.2s0.3,0.9,0.8,1.2s1.3,0.5,2.2,0.6   c0.9,0.1,1.9,0.3,2.9,0.4s2.2,0.4,3.2,0.6c1.1,0.3,2,0.7,2.9,1.2s1.6,1.3,2.1,2.2s0.8,2.1,0.8,3.6s-0.5,2.9-1.4,4.2   s-2.4,2.3-4.2,3S183.2,91.7,180.5,91.7z"></path>		</g>	</g></g></svg>
